<svg width="100" height="100" xmlns="http://www.w3.org/2000/svg">
 <defs>
  <filter height="200%" width="200%" y="-50%" x="-50%" id="svg_4_blur">
   <feGaussianBlur stdDeviation="0" in="SourceGraphic"/>
  </filter>
 </defs>
 <g>
  <title>background</title>
  <rect fill="#fff" id="canvas_background" height="102" width="102" y="-1" x="-1"/>
  <g display="none" overflow="visible" y="0" x="0" height="100%" width="100%" id="canvasGrid">
   <rect fill="url(#gridpattern)" stroke-width="0" y="0" x="0" height="100%" width="100%"/>
  </g>
 </g>
 <g>
  <title>Layer 1</title>
  <path stroke="#304ddd" id="svg_2" d="m23.250002,81.398964c-11.1137,0 -19.87483,-9.315018 -19.87483,-20.800404l0,0c0.00669,-9.21806 5.816781,-16.98341 13.844181,-19.704838l0,0c0.278481,-7.83477 6.49785,-14.088711 14.14279,-14.095652l0,0c2.448938,0 4.74684,0.65863 6.742762,1.792231l0,0c4.246857,-7.29743 11.975697,-12.18895 20.825047,-12.192419l0,0c13.240513,0.006939 24.008617,10.93751 24.313831,24.540899l0,0c7.923561,2.787251 13.626282,10.518009 13.632919,19.659779l0,0c0,11.485386 -9.013718,20.800404 -20.127274,20.800404l0,0l-53.246946,0l-0.25248,0zm55.941542,-34.407383c-1.71418,-0.329239 -2.898331,-1.948139 -2.734001,-3.740471l0,0c0.05706,-0.592808 0.090599,-1.16478 0.090599,-1.722988l0,0c-0.023483,-10.050001 -7.8899,-18.182901 -17.614799,-18.196781l0,0c-7.544361,-0.006939 -13.9617,4.915781 -16.474239,11.82156l0,0c-0.409248,1.119701 -1.361961,1.9552 -2.509109,2.184059l0,0c-1.14064,0.228771 -2.32811,-0.18034 -3.109692,-1.071308l0,0c-1.395569,-1.570419 -3.307621,-2.534149 -5.478159,-2.534149l0,0c-4.109291,0.006939 -7.433701,3.442448 -7.44705,7.689178l0,0c0,0.471531 0.05703,0.95689 0.150921,1.46986l0,0c0.164429,0.922241 -0.026772,1.872101 -0.546741,2.641689l0,0c-0.519979,0.77301 -1.31498,1.286121 -2.20396,1.43515l0,0c-6.373639,1.08514 -11.244469,6.756672 -11.237739,13.627769l0,0c0.013419,7.658024 6.01134,13.849613 13.42155,13.870396l0,0l53.250305,0c7.410225,-0.020782 13.39814,-6.212372 13.414879,-13.870396l0,0c0.01342,-6.784378 -4.72995,-12.410919 -10.972763,-13.603569l0,0" stroke-width="1.5" fill="none"/>
  <path id="svg_3" d="m21.874542,46.87495" opacity="0.5" stroke-width="1.5" stroke="#304ddd" fill="#56aaff"/>
  <text font-style="normal" filter="url(#svg_4_blur)" font-weight="bold" xml:space="preserve" text-anchor="left" font-family="'Trebuchet MS', Gadget, sans-serif" font-size="20" id="svg_4" y="65.375254" x="21.874542" stroke-width="0" stroke="#304ddd" fill="#00007f">YAAW</text>
 </g>
</svg>